PathFileType	4	(X/Y/Z)	3_coords_data.trc
DataRate	CameraRate	NumFrames	NumMarkers	Units	OrigDataRate	OrigDataStartFrame	OrigNumFrames
30.0	30.0	9	21	m	30.0	31	81
Frame#	Time	THUMB_TIP	THUMB_IP	THUMB_MCP	THUMB_CMC	INDEX_TIP	INDEX_DIP	INDEX_PIP	INDEX_MCP	MIDDLE_TIP	MIDDLE_DIP	MIDDLE_PIP	MIDDLE_MCP	RING_TIP	RING_DIP	RING_PIP	RING_MCP	PINKY_TIP	PINKY_DIP	PINKY_PIP	PINKY_MCP	WRIST
X1	Y1	Z1	X2	Y2	Z2	X3	Y3	Z3	X4	Y4	Z4	X5	Y5	Z5	X6	Y6	Z6	X7	Y7	Z7	X8	Y8	Z8	X9	Y9	Z9	X10	Y10	Z10	X11	Y11	Z11	X12	Y12	Z12	X13	Y13	Z13	X14	Y14	Z14	X15	Y15	Z15	X16	Y16	Z16	X17	Y17	Z17	X18	Y18	Z18	X19	Y19	Z19	X20	Y20	Z20	X21	Y21	Z21
30	1.0	-0.16789999389648438	-0.11494400024414063	0.9256580200195312	-0.1665590057373047	-0.09234040069580078	0.9446409912109375	-0.16804299926757812	-0.07439179992675782	0.9697509765625	-0.16752900695800782	-0.045359100341796875	0.9947020263671875	-0.15666600036621095	-0.04790610122680664	0.972323974609375	-0.13988299560546874	-0.043743099212646484	0.9595599975585938	-0.13693499755859376	-0.043703498840332033	0.9352789916992188	-0.17648699951171876	-0.051437198638916014	0.9379860229492187	-0.15557400512695313	-0.03190010070800781	0.9760250244140625	-0.1415659942626953	-0.02596750068664551	0.9661420288085938	-0.1387149963378906	-0.02247669982910156	0.9389600219726563	-0.18043600463867188	-0.02872879981994629	0.9372230224609375	-0.16274200439453124	-0.0186028995513916	0.9803319702148438	-0.14823699951171876	-0.009961609840393066	0.9709929809570312	-0.14528700256347657	-0.002723400115966797	0.946468994140625	-0.1849459991455078	-0.008701419830322266	0.9448720092773437	-0.16776300048828124	-0.005377699851989746	0.980677978515625	-0.15397700500488282	0.0038293800354003904	0.9728519897460938	-0.15528399658203124	0.012289699554443359	0.9558989868164063	-0.18742799377441408	0.0089662504196167	0.9541619873046875	-0.18575799560546874	-0.023220800399780275	1.01827001953125
31	1.0333333333333334	-0.1679949951171875	-0.11489800262451172	0.9254019775390625	-0.16697900390625	-0.09214409637451172	0.944218994140625	-0.16821000671386718	-0.0743427963256836	0.9695430297851563	-0.16766099548339844	-0.045356800079345706	0.9945230102539062	-0.1549949951171875	-0.047711498260498045	0.9723060302734375	-0.1401719970703125	-0.04374359893798828	0.9593729858398438	-0.13710800170898438	-0.04371269989013672	0.9350170288085937	-0.17655499267578126	-0.051463199615478517	0.9377769775390625	-0.15230099487304688	-0.031376800537109374	0.9743790283203125	-0.14164100646972655	-0.025906400680541994	0.9659359741210938	-0.13883399963378906	-0.02242490005493164	0.9387630004882812	-0.180531005859375	-0.028686700820922853	0.9369860229492187	-0.1630590057373047	-0.01861840057373047	0.9804550170898437	-0.1485030059814453	-0.009957189559936524	0.9709420166015625	-0.14539500427246094	-0.002716059923171997	0.9463610229492188	-0.18514599609375	-0.00864054012298584	0.9444860229492188	-0.16735499572753906	-0.005325210094451904	0.980531982421875	-0.15404800415039063	0.003840110063552856	0.9727100219726562	-0.15604499816894532	0.012393300056457519	0.9556820068359375	-0.1875679931640625	0.008986749649047852	0.9539860229492187	-0.185947998046875	-0.0231914005279541	1.018030029296875
32	1.0666666666666667	-0.16821299743652343	-0.11488899993896484	0.9252269897460937	-0.16700799560546875	-0.09234429931640625	0.9439819946289062	-0.168302001953125	-0.07453160095214843	0.9693380126953125	-0.16705599975585939	-0.045194499969482424	0.99435498046875	-0.153718994140625	-0.04756819915771485	0.9715750122070312	-0.14025700378417968	-0.0436348991394043	0.9593289794921875	-0.13710400390625	-0.04374380111694336	0.934864990234375	-0.17674200439453125	-0.05143740081787109	0.9375540161132813	-0.15554400634765625	-0.03230149841308594	0.97672900390625	-0.14170899963378905	-0.02595240020751953	0.9658159790039063	-0.13894500732421874	-0.022353900909423827	0.9385330200195312	-0.1805260009765625	-0.028681800842285155	0.93664501953125	-0.16277999877929689	-0.01876059913635254	0.9800029907226563	-0.14847799682617188	-0.00995456027984619	0.9706099853515625	-0.14553700256347657	-0.002701339960098266	0.9461060180664063	-0.18534199523925782	-0.008623950004577637	0.9442509765625	-0.16779100036621095	-0.005445089817047119	0.9803280029296875	-0.15416000366210938	0.003815459966659546	0.9726729736328125	-0.15535699462890626	0.012377599716186523	0.9557789916992188	-0.187625	0.009028349876403809	0.9537750244140625	-0.18608500671386718	-0.023146600723266603	1.0178599853515624
33	1.1	-0.16827799987792968	-0.11488999938964843	0.92502197265625	-0.16726499938964845	-0.09233899688720704	0.943697998046875	-0.16835099792480468	-0.07467310333251953	0.9690180053710937	-0.167781005859375	-0.045114398956298825	0.994364013671875	-0.15430799865722655	-0.047620201110839845	0.9708579711914063	-0.14039799499511718	-0.04373020172119141	0.9591010131835938	-0.1372259979248047	-0.043690101623535156	0.9345969848632812	-0.17683999633789063	-0.051420600891113284	0.9373770141601563	-0.15558599853515626	-0.03209080123901367	0.9761749877929687	-0.14155400085449218	-0.02585659980773926	0.9654669799804687	-0.1390019989013672	-0.02246940040588379	0.9382899780273437	-0.18083599853515625	-0.02873970031738281	0.9365989990234375	-0.16280999755859374	-0.01885639953613281	0.9797349853515624	-0.14881500244140625	-0.009999159812927247	0.9704569702148438	-0.1456510009765625	-0.00269539999961853	0.94581201171875	-0.18533900451660157	-0.008680669784545899	0.9440369873046875	-0.16374200439453124	-0.004926990032196045	0.9816669921875	-0.1540469970703125	0.003970269918441772	0.97218701171875	-0.15628599548339844	0.012422100067138672	0.9552319946289063	-0.18774099731445312	0.008987520217895508	0.9536220092773438	-0.18613400268554686	-0.023215900421142577	1.0176599731445313
34	1.1333333333333333	-0.1684320068359375	-0.11491100311279297	0.924781982421875	-0.16691200256347657	-0.09267569732666016	0.9434290161132812	-0.16841200256347658	-0.0745259017944336	0.9689329833984375	-0.16799099731445313	-0.045385799407958984	0.9941740112304688	-0.15493499755859375	-0.04755690002441406	0.9712130126953125	-0.14022099304199218	-0.043783401489257814	0.95893798828125	-0.1373159942626953	-0.04386439895629883	0.9343480224609375	-0.17755499267578126	-0.051719799041748046	0.937551025390625	-0.15603599548339844	-0.032450000762939454	0.9761890258789062	-0.14188600158691406	-0.025879999160766602	0.9654140014648438	-0.13902999877929687	-0.02253700065612793	0.9379650268554688	-0.18089500427246094	-0.02874090003967285	0.9363980102539062	-0.16357200622558593	-0.019000799179077148	0.9794819946289063	-0.14879200744628907	-0.010035499572753907	0.9702109985351562	-0.14569200134277344	-0.002800750017166137	0.9455490112304688	-0.18533399963378908	-0.008707880020141601	0.9439140014648437	-0.16766099548339844	-0.005462629795074463	0.9796840209960938	-0.15414100646972656	0.0039054100513458254	0.9719990234375	-0.15557699584960938	0.012276700019836426	0.9548740234375	-0.18772799682617186	0.00893745994567871	0.95347998046875	-0.18638400268554686	-0.023208799362182616	1.0174099731445312
35	1.1666666666666667	-0.16849099731445313	-0.11491200256347656	0.924572998046875	-0.1673350067138672	-0.0921802978515625	0.9433579711914063	-0.16843600463867187	-0.07451940155029296	0.9686690063476563	-0.16776800537109374	-0.045362499237060545	0.99375	-0.15447200012207032	-0.04771170043945312	0.9706019897460938	-0.13982899475097657	-0.04387310028076172	0.9587020263671875	-0.13736300659179687	-0.04384170150756836	0.9341589965820313	-0.17689500427246094	-0.05150759887695312	0.9369990234375	-0.15433700561523436	-0.03144379997253418	0.97352197265625	-0.14185200500488282	-0.025980400085449218	0.9649349975585938	-0.13919500732421874	-0.022523300170898437	0.9375960083007813	-0.18077999877929687	-0.028760499954223633	0.9360859985351563	-0.16284300231933593	-0.01885740089416504	0.979364990234375	-0.148572998046875	-0.01006190013885498	0.9701400146484375	-0.14568800354003905	-0.0028379399776458742	0.9455490112304688	-0.18532200622558595	-0.008687439918518067	0.9436209716796875	-0.16760800170898438	-0.005536089897155762	0.9797050170898437	-0.15416799926757813	0.003819080114364624	0.971823974609375	-0.15558799743652343	0.012206100463867187	0.954739990234375	-0.187572998046875	0.008935040473937988	0.9532559814453125	-0.1860570068359375	-0.0232637996673584	1.0171799926757812
36	1.2	-0.16841299438476562	-0.11490599822998047	0.9244000244140625	-0.1673820037841797	-0.0923490982055664	0.943155029296875	-0.16847000122070313	-0.07444259643554688	0.968593017578125	-0.16788299560546874	-0.045368499755859375	0.9937639770507812	-0.15631199645996094	-0.04802859878540039	0.9712869873046875	-0.14012699890136718	-0.04388560104370117	0.9583150024414062	-0.13733999633789062	-0.04397370147705078	0.9339990234375	-0.17760899353027343	-0.05180300140380859	0.9372559814453125	-0.15350599670410156	-0.03125279998779297	0.9721320190429688	-0.14183900451660156	-0.026108800888061525	0.9649349975585938	-0.139156005859375	-0.02248819923400879	0.9374190063476563	-0.18083099365234376	-0.028830299377441405	0.9360549926757813	-0.1624199981689453	-0.018736400604248048	0.9789600219726563	-0.14864599609375	-0.010079400062561035	0.9697119750976563	-0.14564900207519532	-0.002912659883499145	0.9452260131835938	-0.18535899353027344	-0.008758440017700195	0.943489013671875	-0.16758599853515624	-0.005498760223388672	0.9796669921875	-0.15419500732421876	0.003672110080718994	0.9716799926757812	-0.15554100036621094	0.012170000076293945	0.9546649780273437	-0.18756500244140625	0.008846139907836914	0.9530700073242188	-0.18613099670410158	-0.023272199630737303	1.0171599731445313
37	1.2333333333333334	-0.16846600341796875	-0.11498000335693359	0.92410302734375	-0.16731700134277344	-0.09230449676513672	0.942969970703125	-0.16844000244140625	-0.07444609832763673	0.9683770141601562	-0.1674429931640625	-0.04526290130615234	0.9936719970703125	-0.15368600463867188	-0.04774039840698242	0.970510009765625	-0.13967100524902343	-0.04394340133666992	0.95777099609375	-0.13730299377441407	-0.04406240081787109	0.933843994140625	-0.17678700256347657	-0.05160039901733399	0.9367520141601563	-0.155072998046875	-0.0317775993347168	0.9737769775390624	-0.14171400451660157	-0.026099399566650392	0.9645980224609375	-0.13907200622558594	-0.022663700103759767	0.9374099731445312	-0.1807989959716797	-0.028851699829101563	0.9358579711914062	-0.1636269989013672	-0.018879999160766603	0.979072021484375	-0.14858200073242187	-0.010150699615478516	0.9696329956054688	-0.14560000610351562	-0.002971590042114258	0.9450809936523438	-0.1853090057373047	-0.008796859741210937	0.9432940063476563	-0.16704400634765626	-0.0052604198455810545	0.9793820190429687	-0.1541230010986328	0.0036624000072479246	0.971541015625	-0.15546200561523438	0.012168499946594238	0.9543709716796875	-0.187156005859375	0.008824250221252442	0.9527960205078125	-0.18641200256347656	-0.02330139923095703	1.0171699829101561
38	1.2666666666666666	-0.16834700012207032	-0.11482399749755859	0.923968994140625	-0.1672740020751953	-0.09231520080566406	0.942760009765625	-0.16836599731445312	-0.0745115966796875	0.96818798828125	-0.16784300231933594	-0.045519001007080076	0.9934940185546876	-0.15362399291992188	-0.047883598327636716	0.9702100219726563	-0.13977200317382812	-0.04391550064086914	0.9580419921875	-0.13727499389648437	-0.04396179962158203	0.9337440185546875	-0.1768209991455078	-0.05157899856567383	0.9365599975585938	-0.15280299377441406	-0.031049699783325196	0.97102001953125	-0.14169200134277343	-0.026100900650024413	0.9645440063476562	-0.13908700561523438	-0.022552600860595705	0.9371420288085938	-0.180677001953125	-0.02888129997253418	0.9355750122070312	-0.16304299926757812	-0.01907900047302246	0.9788740234375	-0.14866900634765626	-0.010141900062561035	0.9694409790039062	-0.14553300476074219	-0.002943619966506958	0.9450040283203125	-0.1853249969482422	-0.00883998966217041	0.9431290283203125	-0.16714100646972657	-0.005755229949951172	0.9791430053710938	-0.1539669952392578	0.0037677299976348866	0.9715399780273437	-0.15543800354003906	0.01216699981689453	0.9542050170898437	-0.18711700439453124	0.008856229782104492	0.9526010131835938	-0.18497000122070312	-0.02325830078125	1.01627001953125
